<?xml version="1.0" encoding="UTF-8"?>
<!DOCTYPE svg PUBLIC "-//W3C//DTD SVG 1.1//EN" "http://www.w3.org/Graphics/SVG/1.1/DTD/svg11.dtd">
<!-- Creator: Corel DESIGNER 2019 (64-Bit) -->
<svg xmlns="http://www.w3.org/2000/svg" xml:space="preserve" width="120px" height="60px" version="1.1" style="shape-rendering:geometricPrecision; text-rendering:geometricPrecision; image-rendering:optimizeQuality; fill-rule:evenodd; clip-rule:evenodd"
viewBox="0 0 38.465 19.252">
 <defs>
  <style type="text/css">
   <![CDATA[
    .fil8 {fill:none}
    .fil1 {fill:#FEFEFE}
    .fil3 {fill:#2B2A29}
    .fil2 {fill:#2B4248}
    .fil0 {fill:#737373}
    .fil4 {fill:#A6A6A6}
    .fil6 {fill:#274C5B;fill-rule:nonzero}
    .fil5 {fill:#2B4248;fill-rule:nonzero}
    .fil7 {fill:#767676;fill-rule:nonzero}
   ]]>
  </style>
 </defs>
 <g id="Warstwa_x0020_1">
  <metadata id="CorelCorpID_0Corel-Layer"/>
  <g id="_1766823259248">
   <g>
    <rect class="fil0" transform="matrix(0.488886 -0.282258 -0 0.564516 8.6692 14.287)" width="8.754" height="7.647"/>
    <rect class="fil1" transform="matrix(0.488885 -0.282258 -0 0.564516 8.6692 9.9673)" width="8.754" height="7.647"/>
    <polygon class="fil2" points="8.669,9.96 12.949,7.489 8.669,4.909 "/>
    <polygon class="fil3" points="8.669,18.603 0.602,13.946 4.24,11.728 8.669,14.287 "/>
    <rect class="fil0" transform="matrix(-0.92732 -0.535388 -0 0.564516 8.66921 9.96831)" width="8.754" height="7.647"/>
    <polygon class="fil4" points="4.29,7.44 12.7,2.584 8.961,0.426 0.551,5.282 "/>
   </g>
   <path class="fil5" d="M16.09 4.752c0,0.18 0.054,0.352 0.162,0.516 0.108,0.165 0.25,0.298 0.427,0.401 0.178,0.102 0.371,0.154 0.582,0.154 0.231,0 0.436,-0.052 0.616,-0.154 0.18,-0.103 0.322,-0.236 0.427,-0.401 0.105,-0.164 0.158,-0.336 0.158,-0.516l0 -3.573 1.101 0 0 3.597c0,0.415 -0.102,0.784 -0.308,1.105 -0.205,0.32 -0.482,0.572 -0.831,0.754 -0.349,0.182 -0.737,0.274 -1.163,0.274l0 0c-0.421,0 -0.805,-0.092 -1.151,-0.274 -0.347,-0.182 -0.623,-0.434 -0.828,-0.754 -0.206,-0.321 -0.308,-0.69 -0.308,-1.105l0 -3.597 1.116 0 0 3.573z"/>
   <polygon id="1" class="fil5" points="27.112,7.078 22.815,3.197 23.146,3.382 23.169,6.847 22.037,6.847 22.037,0.956 22.083,0.956 26.288,4.822 26.041,4.714 26.018,1.179 27.143,1.179 27.143,7.078 "/>
   <polygon id="2" class="fil5" points="29.732,1.179 30.849,1.179 30.849,6.847 29.732,6.847 "/>
   <path id="3" class="fil6" d="M14.892 12.968l0 -3.712 1.011 0c0.366,0 0.678,0.057 0.937,0.17 0.258,0.113 0.466,0.262 0.624,0.446 0.157,0.185 0.272,0.39 0.346,0.614 0.074,0.224 0.11,0.447 0.11,0.67 0,0.28 -0.048,0.532 -0.146,0.754 -0.097,0.223 -0.232,0.413 -0.403,0.57 -0.171,0.158 -0.367,0.278 -0.588,0.362 -0.22,0.084 -0.454,0.126 -0.7,0.126l-1.191 0zm0.498 -0.478l0.595 0c0.205,0 0.395,-0.03 0.567,-0.092 0.173,-0.061 0.324,-0.15 0.452,-0.267 0.128,-0.116 0.229,-0.259 0.3,-0.429 0.072,-0.169 0.108,-0.361 0.108,-0.577 0,-0.229 -0.037,-0.43 -0.113,-0.603 -0.075,-0.173 -0.178,-0.318 -0.308,-0.434 -0.13,-0.116 -0.277,-0.205 -0.441,-0.264 -0.164,-0.06 -0.337,-0.09 -0.519,-0.09l-0.641 0 0 2.756z"/>
   <polygon id="4" class="fil6" points="19.568,9.256 21.981,9.256 21.981,9.734 20.066,9.734 20.066,10.863 21.776,10.863 21.776,11.341 20.066,11.341 20.066,12.49 22.053,12.49 22.053,12.968 19.568,12.968 "/>
   <path id="5" class="fil6" d="M25.647 9.919c-0.127,-0.065 -0.266,-0.122 -0.416,-0.17 -0.151,-0.048 -0.298,-0.072 -0.442,-0.072 -0.198,0 -0.356,0.046 -0.475,0.139 -0.118,0.092 -0.177,0.215 -0.177,0.37 0,0.116 0.038,0.214 0.113,0.295 0.076,0.08 0.175,0.149 0.298,0.208 0.123,0.058 0.252,0.113 0.385,0.164 0.116,0.044 0.231,0.094 0.344,0.149 0.113,0.054 0.215,0.123 0.306,0.205 0.09,0.082 0.162,0.183 0.215,0.303 0.053,0.12 0.08,0.269 0.08,0.447 0,0.195 -0.049,0.373 -0.147,0.533 -0.097,0.161 -0.237,0.288 -0.418,0.38 -0.181,0.093 -0.397,0.139 -0.647,0.139 -0.164,0 -0.321,-0.019 -0.47,-0.056 -0.148,-0.038 -0.286,-0.087 -0.413,-0.147 -0.127,-0.06 -0.239,-0.122 -0.339,-0.187l0.221 -0.39c0.082,0.058 0.176,0.113 0.282,0.167 0.107,0.053 0.218,0.095 0.334,0.128 0.116,0.032 0.229,0.049 0.339,0.049 0.116,0 0.232,-0.022 0.346,-0.065 0.115,-0.042 0.21,-0.108 0.285,-0.197 0.076,-0.089 0.113,-0.207 0.113,-0.354 0,-0.127 -0.033,-0.232 -0.1,-0.316 -0.067,-0.084 -0.155,-0.156 -0.264,-0.216 -0.11,-0.06 -0.226,-0.113 -0.349,-0.161 -0.117,-0.045 -0.235,-0.094 -0.354,-0.147 -0.12,-0.053 -0.232,-0.118 -0.334,-0.195 -0.103,-0.077 -0.185,-0.172 -0.247,-0.285 -0.061,-0.113 -0.092,-0.25 -0.092,-0.41 0,-0.196 0.047,-0.366 0.141,-0.511 0.094,-0.146 0.224,-0.26 0.388,-0.344 0.164,-0.084 0.352,-0.129 0.565,-0.136 0.239,0 0.45,0.029 0.633,0.087 0.184,0.058 0.345,0.13 0.486,0.216l-0.19 0.38z"/>
   <polygon id="6" class="fil6" points="27.526,9.256 28.024,9.256 28.024,12.968 27.526,12.968 "/>
   <path id="7" class="fil6" d="M32.808 12.65c-0.051,0.044 -0.123,0.088 -0.215,0.131 -0.093,0.042 -0.195,0.081 -0.306,0.115 -0.111,0.034 -0.226,0.062 -0.344,0.082 -0.118,0.021 -0.228,0.031 -0.331,0.031 -0.298,0 -0.566,-0.046 -0.803,-0.139 -0.238,-0.092 -0.442,-0.22 -0.611,-0.385 -0.17,-0.164 -0.3,-0.357 -0.39,-0.58 -0.091,-0.222 -0.136,-0.463 -0.136,-0.724 0,-0.308 0.05,-0.584 0.151,-0.829 0.101,-0.244 0.24,-0.451 0.416,-0.621 0.176,-0.169 0.379,-0.298 0.608,-0.385 0.229,-0.087 0.472,-0.131 0.729,-0.131 0.216,0 0.416,0.026 0.601,0.077 0.185,0.052 0.347,0.117 0.487,0.195l-0.169 0.457c-0.068,-0.041 -0.153,-0.078 -0.254,-0.113 -0.101,-0.034 -0.205,-0.062 -0.311,-0.084 -0.106,-0.023 -0.205,-0.034 -0.297,-0.034 -0.219,0 -0.418,0.034 -0.596,0.1 -0.178,0.067 -0.33,0.163 -0.457,0.288 -0.127,0.125 -0.224,0.275 -0.292,0.452 -0.069,0.176 -0.103,0.373 -0.103,0.592 0,0.202 0.034,0.387 0.103,0.555 0.068,0.168 0.165,0.312 0.292,0.434 0.127,0.121 0.278,0.215 0.454,0.282 0.177,0.067 0.371,0.1 0.583,0.1 0.127,0 0.252,-0.013 0.375,-0.038 0.123,-0.026 0.229,-0.063 0.318,-0.111l0 -0.739 -0.739 0 0 -0.477 1.237 0 0 1.499z"/>
   <polygon id="8" class="fil6" points="37.783,13.086 34.913,10.175 35.057,10.211 35.067,12.968 34.569,12.968 34.569,9.143 34.595,9.143 37.434,12.064 37.316,12.039 37.305,9.256 37.798,9.256 37.798,13.086 "/>
   <path id="9" class="fil7" d="M16.52 15.164c-0.096,-0.046 -0.213,-0.089 -0.351,-0.129 -0.139,-0.04 -0.277,-0.06 -0.416,-0.06 -0.216,0 -0.388,0.054 -0.517,0.162 -0.13,0.107 -0.194,0.243 -0.194,0.406 0,0.123 0.036,0.226 0.11,0.307 0.074,0.082 0.171,0.151 0.291,0.208 0.121,0.057 0.248,0.112 0.384,0.164 0.108,0.04 0.215,0.085 0.321,0.134 0.106,0.05 0.203,0.11 0.289,0.18 0.086,0.071 0.155,0.159 0.205,0.264 0.051,0.105 0.077,0.234 0.077,0.388 0,0.182 -0.044,0.343 -0.13,0.483 -0.086,0.14 -0.206,0.248 -0.36,0.325 -0.154,0.077 -0.333,0.116 -0.536,0.116 -0.163,0 -0.312,-0.02 -0.446,-0.06 -0.134,-0.04 -0.251,-0.087 -0.351,-0.141 -0.1,-0.054 -0.179,-0.099 -0.238,-0.136l0.106 -0.185c0.068,0.049 0.15,0.098 0.247,0.148 0.097,0.049 0.203,0.091 0.317,0.124 0.114,0.034 0.228,0.051 0.342,0.051 0.132,0 0.261,-0.026 0.386,-0.078 0.124,-0.053 0.228,-0.132 0.309,-0.238 0.082,-0.106 0.123,-0.241 0.123,-0.404 0,-0.158 -0.039,-0.285 -0.116,-0.382 -0.077,-0.097 -0.175,-0.176 -0.296,-0.238 -0.12,-0.061 -0.248,-0.117 -0.383,-0.166 -0.105,-0.04 -0.21,-0.082 -0.314,-0.127 -0.105,-0.045 -0.2,-0.099 -0.287,-0.162 -0.086,-0.063 -0.154,-0.139 -0.205,-0.228 -0.051,-0.09 -0.076,-0.197 -0.076,-0.324 0,-0.157 0.04,-0.294 0.12,-0.411 0.08,-0.117 0.188,-0.209 0.325,-0.275 0.137,-0.066 0.294,-0.101 0.469,-0.104 0.154,0 0.311,0.02 0.469,0.06 0.159,0.04 0.297,0.091 0.414,0.153l-0.088 0.175z"/>
   <polygon id="10" class="fil7" points="18.531,14.795 20.68,14.795 20.68,15.012 19.714,15.012 19.714,18.075 19.488,18.075 19.488,15.012 18.531,15.012 "/>
   <path id="11" class="fil7" d="M22.945 16.966c0,0.191 0.039,0.356 0.118,0.495 0.078,0.138 0.185,0.245 0.321,0.321 0.135,0.075 0.289,0.113 0.462,0.113 0.175,0 0.332,-0.038 0.469,-0.113 0.137,-0.076 0.245,-0.183 0.323,-0.321 0.079,-0.139 0.118,-0.304 0.118,-0.495l0 -2.171 0.222 0 0 2.185c0,0.237 -0.05,0.44 -0.15,0.61 -0.1,0.169 -0.236,0.299 -0.407,0.388 -0.171,0.089 -0.363,0.134 -0.575,0.134l0 0c-0.213,0 -0.404,-0.045 -0.575,-0.134 -0.171,-0.089 -0.306,-0.219 -0.405,-0.388 -0.098,-0.17 -0.147,-0.373 -0.147,-0.61l0 -2.185 0.226 0 0 2.171z"/>
   <path id="12" class="fil7" d="M27.28 18.075l0 -3.28 0.809 0c0.317,0 0.587,0.05 0.81,0.15 0.224,0.1 0.405,0.232 0.543,0.395 0.139,0.163 0.241,0.342 0.305,0.536 0.065,0.194 0.097,0.386 0.097,0.577 0,0.25 -0.043,0.474 -0.129,0.673 -0.086,0.198 -0.204,0.368 -0.354,0.51 -0.149,0.142 -0.319,0.25 -0.51,0.326 -0.191,0.075 -0.393,0.113 -0.605,0.113l-0.966 0zm0.226 -0.217l0.68 0c0.197,0 0.382,-0.033 0.554,-0.097 0.173,-0.065 0.324,-0.159 0.455,-0.282 0.131,-0.123 0.233,-0.272 0.307,-0.446 0.074,-0.174 0.111,-0.372 0.111,-0.594 0,-0.187 -0.031,-0.367 -0.095,-0.538 -0.063,-0.171 -0.157,-0.322 -0.284,-0.455 -0.126,-0.132 -0.281,-0.237 -0.466,-0.314 -0.185,-0.077 -0.401,-0.116 -0.647,-0.116l-0.615 0 0 2.842z"/>
   <polygon id="13" class="fil7" points="31.957,14.795 32.184,14.795 32.184,18.075 31.957,18.075 "/>
   <path id="14" class="fil7" d="M34.296 16.439c0,-0.231 0.043,-0.447 0.13,-0.649 0.086,-0.201 0.206,-0.38 0.36,-0.536 0.154,-0.155 0.332,-0.277 0.534,-0.365 0.202,-0.087 0.418,-0.131 0.649,-0.131 0.231,0 0.448,0.044 0.651,0.131 0.204,0.088 0.382,0.21 0.536,0.365 0.154,0.156 0.275,0.335 0.363,0.536 0.088,0.202 0.132,0.418 0.132,0.649 0,0.231 -0.044,0.448 -0.132,0.65 -0.088,0.201 -0.209,0.379 -0.363,0.533 -0.154,0.154 -0.332,0.274 -0.536,0.361 -0.203,0.086 -0.42,0.129 -0.651,0.129 -0.231,0 -0.447,-0.042 -0.649,-0.125 -0.202,-0.083 -0.38,-0.2 -0.534,-0.351 -0.154,-0.151 -0.274,-0.328 -0.36,-0.531 -0.087,-0.204 -0.13,-0.425 -0.13,-0.666zm0.231 0.005c0,0.2 0.037,0.388 0.111,0.564 0.074,0.175 0.177,0.329 0.31,0.462 0.132,0.132 0.286,0.236 0.46,0.312 0.174,0.075 0.359,0.113 0.556,0.113 0.204,0 0.393,-0.038 0.569,-0.113 0.175,-0.076 0.329,-0.18 0.462,-0.312 0.132,-0.133 0.236,-0.287 0.311,-0.462 0.076,-0.176 0.114,-0.365 0.114,-0.569 0,-0.2 -0.038,-0.388 -0.114,-0.566 -0.075,-0.177 -0.179,-0.332 -0.311,-0.466 -0.133,-0.134 -0.287,-0.24 -0.462,-0.317 -0.176,-0.077 -0.364,-0.115 -0.564,-0.115 -0.203,0 -0.393,0.039 -0.568,0.118 -0.176,0.078 -0.329,0.185 -0.46,0.321 -0.131,0.135 -0.233,0.292 -0.305,0.469 -0.072,0.177 -0.109,0.364 -0.109,0.561z"/>
  </g>
  <rect class="fil8" width="38.465" height="19.252"/>
 </g>
</svg>
